<svg xmlns="http://www.w3.org/2000/svg" xmlns:xlink="http://www.w3.org/1999/xlink" viewBox="0 0 400 400"><defs><style>.cls-1{fill:url(#radial-gradient);}.cls-2{fill:#4990e2;}.cls-3{fill:#fff;}.cls-4{fill:#fab81b;}</style><radialGradient id="radial-gradient" cx="2.69" cy="587.22" r="491.7" gradientTransform="translate(250.83 -1246.59) scale(1.72 3.4)" gradientUnits="userSpaceOnUse"><stop offset="0" stop-color="#fff33b"/><stop offset="0.04" stop-color="#fee72e"/><stop offset="0.12" stop-color="#fed51b"/><stop offset="0.2" stop-color="#fdca10"/><stop offset="0.28" stop-color="#fdc70c"/><stop offset="0.67" stop-color="#f3903f"/><stop offset="0.89" stop-color="#ed683c"/><stop offset="1" stop-color="#e93e3a"/></radialGradient></defs><title>agile</title><g id="Layer_2" data-name="Layer 2"><g id="Future"><circle class="cls-1" cx="200" cy="200" r="200"/><rect class="cls-2" x="192.06" y="273.91" width="10.4" height="70.24"/><polygon class="cls-2" points="241.11 333.08 232.11 338.27 196.9 277.44 205.9 272.25 241.11 333.08"/><polygon class="cls-2" points="153.89 333.56 162.89 338.74 198.1 277.91 189.1 272.73 153.89 333.56"/><rect class="cls-2" x="61" y="79.34" width="273" height="205.66"/><rect class="cls-3" x="71.62" y="91.77" width="251.77" height="180.8"/><rect class="cls-2" x="152.18" y="150.84" width="39.89" height="31.88"/><rect class="cls-4" x="223.1" y="232.19" width="39.89" height="31.88"/><rect class="cls-2" x="223.1" y="147.55" width="39.89" height="31.88"/><rect class="cls-4" x="112.28" y="100.27" width="39.89" height="31.88"/><polygon class="cls-4" points="249.91 159.9 211.08 150.83 218.45 119.8 257.27 128.87 249.91 159.9"/><polygon class="cls-4" points="191.18 219.82 152.35 210.74 159.72 179.71 198.55 188.79 191.18 219.82"/><polygon class="cls-2" points="141.07 222.52 101.51 217.41 105.66 185.8 145.22 190.91 141.07 222.52"/><polygon class="cls-2" points="236.32 217.02 196.87 222.84 192.14 191.31 231.59 185.48 236.32 217.02"/><rect class="cls-2" x="152.18" y="226.7" width="39.89" height="31.88"/><polygon class="cls-4" points="287.09 225.37 248 217.5 254.39 186.25 293.49 194.13 287.09 225.37"/></g></g></svg>