<svg xmlns="http://www.w3.org/2000/svg" viewBox="0 0 929 545.5"><defs><style>.cls-1{fill:#fff;}.cls-2{fill:none;stroke:#fff;stroke-miterlimit:10;stroke-width:16px;}</style></defs><title>consulting</title><g id="Ebene_2" data-name="Ebene 2"><g id="Ebene_1_Kopie" data-name="Ebene 1 Kopie"><path class="cls-1" d="M768.5,16C809,16,842,48.63,842,88.74s-33,72.74-73.5,72.74S695,128.85,695,88.74,728,16,768.5,16m0-16C719.07,0,679,39.73,679,88.74s40.07,88.74,89.5,88.74S858,137.75,858,88.74,817.93,0,768.5,0Z"/><path class="cls-2" d="M617,350c0-84.16,68-152.39,152-152.39S921,265.84,921,350"/><path class="cls-2" d="M287.55,545.5c0-104.85,84.61-189.84,189-189.84s189,85,189,189.84"/><path class="cls-1" d="M564.49,183.59A93.8,93.8,0,0,1,571.83,220c0,52.14-42.74,94.55-95.28,94.55S381.26,272.18,381.26,220a94.14,94.14,0,0,1,5-30.19l77.63,53,9.25,6.31,9.09-6.52,82.28-59M570,160l-97.08,69.61-93.38-63.69A109.5,109.5,0,0,0,365.26,220c0,61.06,49.82,110.55,111.29,110.55S587.83,281.1,587.83,220A109.42,109.42,0,0,0,570,160Z"/><path class="cls-1" d="M159.5,16C200,16,233,48.63,233,88.74s-33,72.74-73.5,72.74S86,128.85,86,88.74,119,16,159.5,16m0-16C110.07,0,70,39.73,70,88.74s40.07,88.74,89.5,88.74S249,137.75,249,88.74,208.93,0,159.5,0Z"/><path class="cls-2" d="M8,350c0-84.16,68.05-152.39,152-152.39S312,265.84,312,350"/><path class="cls-1" d="M481.34,42.34l128.27,87.49L473.18,227.66,344.91,140.17,481.34,42.34m-.23-19.52L317,140.5,473.41,247.18,637.52,129.5,481.11,22.82Z"/></g></g></svg>