<svg xmlns="http://www.w3.org/2000/svg" viewBox="0 0 400 400"><defs><style>.cls-1{fill:#4990e2;}.cls-2{fill:#fff;}.cls-3{fill:#fab81b;}</style></defs><title>data</title><g id="Layer_2" data-name="Layer 2"><g id="Future"><circle id="Background" class="cls-1" cx="200" cy="200" r="200"/><circle class="cls-2" cx="200" cy="200" r="183"/><rect class="cls-3" x="69" y="197.8" width="45.45" height="65.56"/><rect class="cls-3" x="137.18" y="133.99" width="45.45" height="128.5"/><rect class="cls-3" x="205.36" y="81.54" width="45.45" height="180.94"/><rect class="cls-3" x="273.55" y="179.44" width="45.45" height="83.04"/><rect class="cls-1" x="69" y="229.27" width="45.45" height="73.43"/><rect class="cls-1" x="137.18" y="161.96" width="45.45" height="140.03"/><rect class="cls-1" x="205.36" y="203.92" width="45.45" height="98.07"/><rect class="cls-1" x="273.55" y="262.48" width="45.45" height="39.5"/><polygon class="cls-1" points="79.49 200.42 130.19 118.25 140.04 135.76 145.92 146.22 212.36 93.78 270.92 147.1 316.38 113.01 270.92 130.49 212.36 62.31 157.29 118.25 130.19 92.03 79.49 200.42"/></g></g></svg>