<svg xmlns="http://www.w3.org/2000/svg" viewBox="0 0 819.58 352"><defs><style>.cls-1{fill:none;}.cls-1,.cls-2{stroke:#fff;stroke-miterlimit:10;stroke-width:16px;}.cls-2{fill:#4990e2;}.cls-3{fill:#fff;}</style></defs><title>engineering</title><g id="Ebene_2" data-name="Ebene 2"><g id="Ebene_1-2" data-name="Ebene 1"><path class="cls-1" d="M264.91,35.5A80.14,80.14,0,0,1,286,89.74c0,44.63-36.49,80.81-81.5,80.81S123,134.37,123,89.74A80.14,80.14,0,0,1,144.09,35.5H8v224H83.44a151.79,151.79,0,0,1,243.12,0H400V35.5Z"/><polyline class="cls-2" points="37 60.5 65 75.5 41 93.5"/><path class="cls-1" d="M51,352c0-84.16,68.05-152.39,152-152.39S355,267.84,355,352"/><path class="cls-3" d="M204.5,17C245,17,278,49.63,278,89.74s-33,72.74-73.5,72.74S131,129.85,131,89.74,164,17,204.5,17m0-16C155.07,1,115,40.73,115,89.74s40.07,88.74,89.5,88.74S294,138.75,294,89.74,253.93,1,204.5,1Z"/><polyline class="cls-1" points="552.29 155.5 577.55 170.5 555.9 188.5"/><path class="cls-1" d="M730.25,131a80.76,80.76,0,0,1-138.83,0H526V283.9c24.55-50.52,75.94-85.29,135.37-85.29,58.64,0,109.46,33.85,134.38,83.27V131Z"/><path class="cls-1" d="M510.1,352c0-84.16,67.49-152.39,150.74-152.39S811.58,267.84,811.58,352"/><path class="cls-3" d="M660.5,16C701,16,734,48.63,734,88.74s-33,72.74-73.5,72.74S587,128.85,587,88.74,620,16,660.5,16m0-16C611.07,0,571,39.73,571,88.74s40.07,88.74,89.5,88.74S750,137.75,750,88.74,709.93,0,660.5,0Z"/></g></g></svg>