<svg xmlns="http://www.w3.org/2000/svg" xmlns:xlink="http://www.w3.org/1999/xlink" viewBox="0 0 400 400"><defs><style>.cls-1{fill:none;}.cls-2{fill:url(#radial-gradient);}.cls-3{fill:#4990e2;}.cls-4{fill:#fff;}</style><radialGradient id="radial-gradient" cx="187.68" cy="311.71" r="491.7" gradientTransform="translate(-2.31 -1.76) scale(1.18 1.24)" gradientUnits="userSpaceOnUse"><stop offset="0" stop-color="#fff33b"/><stop offset="0.04" stop-color="#fee72e"/><stop offset="0.12" stop-color="#fed51b"/><stop offset="0.2" stop-color="#fdca10"/><stop offset="0.28" stop-color="#fdc70c"/><stop offset="0.67" stop-color="#f3903f"/><stop offset="0.89" stop-color="#ed683c"/><stop offset="1" stop-color="#e93e3a"/></radialGradient></defs><title>future</title><g id="Layer_2" data-name="Layer 2"><g id="Future"><path class="cls-1" d="M296.36,24.71A199.14,199.14,0,0,0,200,0c-1.26,0-2.52,0-3.78.05A229.45,229.45,0,0,1,296.36,24.71Z"/><path class="cls-2" d="M.22,190.71A479.77,479.77,0,0,1,126.5,174c101.34,0,194.05,31,265.45,82.32A200.25,200.25,0,0,0,296.36,24.71,229.45,229.45,0,0,0,196.22.05C90.61,2,5,85.82.22,190.71Z"/><path class="cls-3" d="M126.5,174A479.77,479.77,0,0,0,.22,190.71C.08,193.79,0,196.89,0,200a199.86,199.86,0,0,0,8.23,56.91C32.74,339.64,109.32,400,200,400s167.26-60.36,191.77-143.09l.18-.59C320.55,205,227.84,174,126.5,174Z"/><path class="cls-4" d="M302,105.63a195.43,195.43,0,0,0-80,15C155.58,148,120.33,202.85,110.73,218.84l9,9V240L129,249.2l-12.29,4.91,18.46,18.45L153.58,291l4.91-12.29,9.76,9.76h12.14l8.36,8.36c16-9.6,70.8-44.85,98.17-111.18A195.4,195.4,0,0,0,302,105.63Zm-43.94,83a26.82,26.82,0,1,1,0-37.93A26.83,26.83,0,0,1,258,188.62Z"/><path class="cls-4" d="M202.89,292.79l23,23a159.83,159.83,0,0,0,21-26.57,143,143,0,0,0,21.27-60.51C246.08,260.66,219.4,281.62,202.89,292.79Z"/><path class="cls-4" d="M178.72,139.31a143.09,143.09,0,0,0-60.5,21.27,160,160,0,0,0-26.58,21l23,23C125.82,188,146.78,161.36,178.72,139.31Z"/></g></g></svg>