<svg xmlns="http://www.w3.org/2000/svg" viewBox="0 0 807 543.37"><defs><style>.cls-1{fill:#f2f2f2;}.cls-2{fill:none;stroke:#f2f2f2;stroke-miterlimit:10;stroke-width:16px;}.cls-3{fill:#fff;}</style></defs><title>ml_1</title><g id="Ebene_2" data-name="Ebene 2"><g id="Ebene_1-2" data-name="Ebene 1"><path class="cls-1" d="M159.5,209.37C200,209.37,233,242,233,282.11s-33,72.74-73.5,72.74S86,322.21,86,282.11s33-72.74,73.5-72.74m0-16c-49.43,0-89.5,39.73-89.5,88.74s40.07,88.74,89.5,88.74S249,331.12,249,282.11s-40.07-88.74-89.5-88.74Z"/><path class="cls-2" d="M8,543.37C8,459.2,76.05,391,160,391s152,68.23,152,152.4"/><polyline class="cls-2" points="495 538.74 495 410.69 799 410.69 799 538.74"/><path class="cls-1" d="M643.94,214c22.26,0,43,6.93,58.54,19.51C717,245.3,725,260.69,725,276.84c0,1.49-.07,3-.21,4.5l-.07.73v85.74H563.15V282.08l-.06-.74c-.14-1.49-.21-3-.21-4.5,0-16.15,8-31.54,22.52-43.34C600.88,220.92,621.68,214,643.94,214m0-16c-53.61,0-97.06,35.3-97.06,78.85q0,3,.27,6v101H740.72v-101q.28-3,.28-6c0-43.55-43.46-78.85-97.06-78.85Z"/><path class="cls-3" d="M275.29,134.68c0-.07,3.47-.72,7.72-1.48s7.74-1.38,7.74-1.46c.24-.63-.28-10.09-.55-10.15s-3.58-.59-7.49-1.18-7.25-1.12-7.46-1.21a7.47,7.47,0,0,1-.9-2.5c-.32-1.24-.91-3.16-1.32-4.25l-.77-2,1.3-1.07c.7-.61,3.37-2.77,5.95-4.82a45.25,45.25,0,0,0,4.52-3.89c-.22-.43-4.06-6.27-4.86-7.41l-.85-1.17L273,94c-9.87,3.57-9.14,3.43-10.33,2.16-.54-.58-2.17-2.07-3.55-3.26l-2.6-2.19,2.58-6.85L261.63,77l-4.76-2.46c-2.62-1.38-4.9-2.36-5.1-2.19s-2.36,2.7-4.88,5.62l-4.61,5.29-4.47-1.05a36.25,36.25,0,0,0-4.75-.89c-.46.2-.72-.69-2.08-7.26-.74-3.54-1.43-6.65-1.56-6.89s-2.27-.42-5.6-.36l-5.38.07-1.2,7.26c-.9,5.28-1.38,7.29-1.81,7.33s-2.18.49-4.12,1-3.85,1.08-4.24,1.18c-.64.17-1.43-.57-5.78-5.27l-5.06-5.45-1,.44c-.53.23-2.71,1.39-4.82,2.56l-3.78,2.13L187.86,81c.66,1.58,1.94,4.66,2.79,6.83l1.59,3.91-2.86,2.67c-1.58,1.49-3.08,2.94-3.35,3.29-.43.57-1.34.37-7.93-1.65-4.08-1.23-7.57-2.11-7.77-2s-4.76,7.64-5.06,8.3c0,.09,2.71,2.25,6.08,4.77l6.13,4.63-.79,2.3a42.61,42.61,0,0,0-1.22,4.49c-.31,1.75-.56,2.2-1.18,2.33l-7.73,1.38-7,1.22.07,4.18c0,2.31.08,4.58.1,5.09,0,.9.3,1,7.75,2.07l7.76,1.17,1,3.38c.57,1.89,1.18,3.91,1.35,4.55l.31,1.13-5.48,4.4c-3,2.43-5.66,4.59-5.84,4.78s.16,1.09,2.38,4.5a32.34,32.34,0,0,0,3,4.28,72.7,72.7,0,0,0,7.29-2.39,77,77,0,0,1,7.33-2.4,20.88,20.88,0,0,1,2.19,2c1,1,2.56,2.35,3.39,3l1.57,1.22-2.53,6.72a53.87,53.87,0,0,0-2.37,7c.13.24,8.15,4.55,9.27,5,.06.05,2.32-2.46,5-5.53s5-5.6,5.1-5.66a5.89,5.89,0,0,1,1.71.41,41.4,41.4,0,0,0,4.71,1.13c2.72.55,3.28.79,3.39,1.38.47,3.24,2.87,13.44,3.16,13.54.47.13,10-.05,10.41-.21a47,47,0,0,0,1.44-7c.62-3.77,1.23-7,1.31-7.12a21.38,21.38,0,0,1,3.42-1,38.29,38.29,0,0,0,4.47-1.28,2.75,2.75,0,0,1,1.62-.31c.23.13,2.56,2.58,5.21,5.42s5,5.19,5.1,5.24a33.26,33.26,0,0,0,4.85-2.43l4.52-2.5-.48-1.32c-.25-.72-1.29-3.26-2.27-5.6-3.07-7.23-3-6.78-1.43-8a40.6,40.6,0,0,0,3.44-3.26l2.1-2.18,7.31,2.38c4,1.29,7.4,2.34,7.53,2.28a48.64,48.64,0,0,0,2.82-4.45l2.59-4.34-6.11-4.53L273,143.68l.56-2C274,140.3,275.08,135.75,275.29,134.68Zm-13.4,4.09a35.9,35.9,0,0,1-14,18,45.42,45.42,0,0,1-15.5,6.11,40.49,40.49,0,0,1-38.23-14,43,43,0,0,1-6.9-14.35A33.5,33.5,0,0,1,190.34,112a36,36,0,0,1,18-16.63A40.22,40.22,0,0,1,220.46,92c14.21-1.6,28.46,4.41,36.58,15.44A33.15,33.15,0,0,1,261.89,138.77Z"/><path class="cls-3" d="M625.16,137a60.91,60.91,0,0,0,1.75-7.46c0-.47,1.38-.81,9.84-2.34,5.41-1,9.82-1.86,9.89-2,.23-.67-.38-12.71-.67-12.8s-4.63-.71-9.82-1.43-9.5-1.34-9.51-1.37-.51-1.59-1-3.49-1.39-4.47-1.88-5.67a20.33,20.33,0,0,1-.83-2.19c.06,0,3.24-2.59,7.08-5.68s7.22-5.85,7.5-6.07c.58-.46.82,0-3.3-6.16-1.83-2.79-3.52-5.11-3.76-5.11s-3.63,1.13-7.61,2.58-8,2.93-9,3.23l-1.88.63-1.55-1.61c-.83-.88-2.87-2.73-4.51-4.08l-3-2.48.77-2.16c3.52-9.54,5.45-15.06,5.32-15.29-.23-.43-11.78-6.21-12.1-6.08s-3,3.32-6.38,7.19l-6,7.06-3.36-.93c-1.83-.53-4.56-1.17-6-1.43s-2.75-.45-2.84-.48-1-3.86-2-8.56-1.95-8.79-2-9.1-1.56-.54-7-.43c-3.77.06-6.91.12-6.94.14s-.77,4.15-1.55,9.15-1.55,9.15-1.62,9.17-1.26.3-2.63.56-4,1-6,1.6L539,65.05l-6.56-6.92c-5.72-6-6.63-6.89-7.18-6.65S514,57.61,513.91,57.71s1.57,3.92,3.55,8.59S521,74.9,521,75a15.63,15.63,0,0,1-2.28,2.18,54.84,54.84,0,0,0-4.24,4.11l-2,2.22-9.58-3-9.54-2.95L490,83.29,486.72,89l4.81,3.54c2.65,1.94,6.19,4.53,7.85,5.76l3,2.26-.83,2.65c-.47,1.47-1.15,4-1.52,5.67a13.1,13.1,0,0,1-.85,3.12c-.1,0-4.46.85-9.7,1.81s-9.54,1.78-9.59,1.91c-.09.29.14,11.33.27,12.15.09.53,1.14.79,5.84,1.47l9.86,1.44,4.16.63.54,2.24a49.21,49.21,0,0,0,1.49,5c.55,1.46,1.07,3,1.2,3.38.21.76.06.93-9.81,8.86-2.53,2.07-4.7,3.85-4.75,4-.16.42,6.89,10.81,7.39,10.84.26,0,3.75-1.14,7.79-2.62s8.06-2.92,9-3.17l1.7-.52,2,2c1.1,1.09,3,2.75,4.18,3.69a20.16,20.16,0,0,1,2.51,2.15c.14.26-1.12,4.37-2.87,9.11l-3.13,8.66,4.94,2.52c2.7,1.39,5.51,2.77,6.19,3.08l1.26.56,6.11-7.17,6.1-7.13,2.63.68c1.94.51,8.78,1.93,9.79,2,.08,0,1,4.08,2,9a72.74,72.74,0,0,0,2.29,9.14c.92.24,13.62-.2,13.7-.49s.76-4.31,1.57-9.19c1.24-7.74,1.53-8.89,2.22-9,1.75-.29,6.57-1.5,8.9-2.25l2.49-.82,6.54,6.94c3.6,3.79,6.58,6.94,6.64,7,.21.08,11.61-6.41,11.74-6.68s-1.51-4.1-3.48-8.77-3.58-8.51-3.55-8.6l2.63-2.32c1.39-1.24,3.34-3.13,4.35-4.2l1.81-1.94,9.41,3c6.5,2.1,9.48,2.91,9.69,2.65,1-1.4,6.36-10.75,6.25-11s-3.58-2.79-7.75-5.88c-6.55-4.84-7.6-5.74-7.46-6.29C624.38,139.48,624.77,138.22,625.16,137Zm-15.49-1.26A47.38,47.38,0,0,1,577.89,164,49.93,49.93,0,0,1,563.15,166a51.79,51.79,0,0,1-16.2-2.59c-15.13-4.92-27-16.78-31.19-31.12-5.43-18.65,2.23-38.19,19.39-49.37a58.87,58.87,0,0,1,16.36-6.79A51.86,51.86,0,0,1,601.45,91.9c2.67,2.95,7.91,12.1,9.07,15.78A44,44,0,0,1,609.67,135.77Z"/><path class="cls-3" d="M421,176.56c-.19-.06-3.65-.66-7.66-1.28s-7.33-1.2-7.42-1.2a10.05,10.05,0,0,1-.57-2c-.26-1.12-.82-3.13-1.29-4.49l-.81-2.5,6.06-4.68,6-4.68L414,153.77c-.7-1-2-3-2.82-4.42l-1.57-2.48-7.35,2.52L395,151.91l-2.24-2.2c-1.23-1.22-2.81-2.69-3.5-3.25l-1.29-1.07,2.6-6.91,2.56-6.88-4.61-2.49a30.83,30.83,0,0,0-4.91-2.36c-.16.07-2.47,2.56-5.17,5.53l-4.84,5.39-3.21-.9a46,46,0,0,0-4.88-1.13c-1.07-.13-1.66-.39-1.7-.79s-.65-3.35-1.3-6.78-1.25-6.43-1.26-6.68c-.05-.58-11-.66-11.17-.1-.07.18-.63,3.29-1.27,6.88s-1.21,6.7-1.28,6.88a5.2,5.2,0,0,1-2.18.7c-1.14.21-3.34.74-4.84,1.19l-2.72.76-5-5.49c-2.76-3.06-5.07-5.56-5.2-5.57s-9.2,4.77-9.32,5c0,.09,1.14,3.21,2.6,6.95l2.66,6.74-.84.72c-.45.38-2,1.84-3.49,3.24l-2.68,2.55-7.45-2.43L301.61,147l-2.47,4c-1.39,2.24-2.58,4.23-2.68,4.42s2.46,2.4,5.7,4.9,5.89,4.63,5.93,4.72a24,24,0,0,1-.79,3.28c-.52,1.73-1.05,3.74-1.24,4.46l-.32,1.34-7.08,1.16c-3.89.61-7.39,1.19-7.71,1.26s-.61,1.4-.65,5.21c0,2.78.14,5.09.35,5.1s3.71.6,7.78,1.27c6.8,1.1,7.4,1.25,7.61,2.05.09.49.61,2.18,1.1,3.83s1,3.28,1.11,3.68c.18.59-.59,1.27-5.85,5.38-4.95,3.86-6,4.77-5.67,5.12a49.24,49.24,0,0,1,2.67,4.22c1.32,2.22,2.43,3.8,2.74,3.85s3.63-1,7.48-2.32l7.05-2.39,2.85,2.67c1.57,1.48,3.22,2.93,3.65,3.22.79.51.71.81-1.95,7.44l-2.76,6.9,4.66,2.51a31.47,31.47,0,0,0,5,2.39c.17-.08,2.44-2.55,5.11-5.51l4.81-5.37,3.39.86c1.9.46,4.11,1,4.93,1.14l1.44.3,1.32,6.81c.71,3.78,1.38,7,1.51,7.25s7.3.51,10.67.32a47.35,47.35,0,0,0,1.58-7.16c1.19-6.58,1.36-7.18,2.19-7.37,2-.4,5.7-1.33,7.21-1.78l1.62-.46,5.07,5.63L384,237l2.23-1.22c1.22-.7,3.37-1.84,4.76-2.61l2.51-1.38L390.87,225c-1.5-3.73-2.67-6.85-2.61-6.95s1.08-1.05,2.3-2.12,2.76-2.46,3.42-3.14l1.21-1.17,7.37,2.42,7.38,2.46,2.69-4.31a27.43,27.43,0,0,0,2.53-4.55c-.08-.15-2.77-2.29-6-4.81l-5.88-4.55.65-1.86c.52-1.48,1.21-4,1.89-7,0-.09,14-2.39,15-2.49C421.5,186.87,421.52,176.72,421,176.56Zm-29.52,19.35a35.84,35.84,0,0,1-19,18.19,39.84,39.84,0,0,1-29.54,1.37c-19.71-6.43-30.42-26.78-23.72-45.24,4.53-12.5,15.72-21.46,29.75-23.88a49.19,49.19,0,0,1,15.44.37,40.5,40.5,0,0,1,22.1,13.1,44.17,44.17,0,0,1,6.17,10.77A35,35,0,0,1,391.43,195.91Z"/><path class="cls-3" d="M481.73,55.65c-.2-.07-3.66-.66-7.66-1.28s-7.34-1.2-7.42-1.2a9.08,9.08,0,0,1-.58-2c-.26-1.12-.81-3.13-1.28-4.5L464,44.14l6-4.69,6-4.67-1.24-1.92c-.7-1-2-3-2.82-4.42L470.41,26l-7.34,2.52L455.72,31l-2.23-2.19c-1.24-1.22-2.82-2.69-3.51-3.25l-1.29-1.08,2.6-6.9,2.56-6.89-4.61-2.49a31.42,31.42,0,0,0-4.9-2.35c-.17.07-2.47,2.56-5.17,5.53l-4.85,5.38-3.21-.89a46,46,0,0,0-4.88-1.13c-1.07-.13-1.65-.39-1.7-.79s-.65-3.35-1.3-6.78S422,.73,422,.47c-.06-.57-11-.65-11.17-.09-.07.18-.64,3.29-1.28,6.88s-1.21,6.69-1.28,6.87a5.08,5.08,0,0,1-2.18.71c-1.14.21-3.33.74-4.84,1.18l-2.72.76-5-5.49c-2.76-3-5.07-5.55-5.2-5.56s-9.2,4.77-9.32,5c0,.09,1.14,3.21,2.61,7l2.65,6.74-.84.72c-.45.38-2,1.84-3.49,3.24l-2.68,2.55-7.45-2.43-7.45-2.43-2.47,4c-1.39,2.23-2.57,4.23-2.67,4.42s2.45,2.4,5.7,4.9,5.88,4.63,5.93,4.72a25.3,25.3,0,0,1-.8,3.28c-.52,1.73-1.05,3.74-1.24,4.46l-.31,1.34-7.08,1.16c-3.89.61-7.39,1.19-7.72,1.26s-.61,1.4-.65,5.21c0,2.78.14,5.08.35,5.1s3.71.6,7.78,1.27c6.8,1.1,7.4,1.25,7.62,2,.09.49.6,2.17,1.1,3.83s1,3.28,1.1,3.68c.19.59-.59,1.27-5.85,5.38-4.95,3.86-6,4.77-5.67,5.12s1.42,2.11,2.68,4.21,2.42,3.81,2.73,3.86,3.63-1,7.49-2.32l7-2.39,2.85,2.67c1.58,1.48,3.22,2.92,3.65,3.22.8.51.71.81-1.95,7.44l-2.76,6.9,4.66,2.51a30.91,30.91,0,0,0,5,2.39c.16-.08,2.43-2.55,5.1-5.51l4.81-5.37,3.39.85c1.91.47,4.12,1,4.93,1.15l1.45.3,1.31,6.81c.71,3.78,1.38,7,1.51,7.25s7.3.5,10.68.31a48.87,48.87,0,0,0,1.57-7.16c1.19-6.57,1.36-7.17,2.2-7.36,2-.41,5.69-1.33,7.2-1.78l1.62-.46,5.07,5.63,5.07,5.63,2.24-1.22c1.21-.7,3.37-1.84,4.75-2.61l2.51-1.38-2.67-6.77c-1.49-3.73-2.67-6.85-2.6-7a30.36,30.36,0,0,1,2.3-2.12c1.22-1.07,2.76-2.47,3.42-3.14L456,90.71l7.36,2.42,7.39,2.46,2.69-4.32a28,28,0,0,0,2.53-4.54c-.08-.15-2.77-2.3-6-4.81l-5.89-4.55.65-1.87a69,69,0,0,0,1.9-7c0-.09,14-2.39,15-2.49C482.28,66,482.3,55.81,481.73,55.65ZM452.2,75a35.89,35.89,0,0,1-19,18.19,39.8,39.8,0,0,1-29.54,1.36c-19.72-6.42-30.43-26.77-23.73-45.23,4.54-12.5,15.73-21.46,29.76-23.88a49.12,49.12,0,0,1,15.43.37,40.43,40.43,0,0,1,22.1,13.1,44.17,44.17,0,0,1,6.17,10.77A35,35,0,0,1,452.2,75Z"/><path class="cls-3" d="M708.14,291.27c-.2-.07-3.66-.66-7.67-1.28l-7.41-1.21a8.71,8.71,0,0,1-.58-2c-.26-1.12-.82-3.13-1.29-4.5l-.81-2.49,6.06-4.69,6-4.67-1.24-1.92c-.71-1-2-3-2.83-4.42l-1.57-2.49-7.35,2.52-7.34,2.52-2.23-2.19c-1.24-1.22-2.82-2.69-3.51-3.25l-1.29-1.08,2.6-6.9,2.56-6.89-4.61-2.49a32.5,32.5,0,0,0-4.91-2.36c-.16.08-2.46,2.57-5.17,5.54l-4.84,5.38-3.21-.89a46.53,46.53,0,0,0-4.88-1.14c-1.07-.12-1.66-.38-1.7-.78s-.65-3.35-1.3-6.78-1.24-6.43-1.26-6.69c0-.57-11-.65-11.17-.09-.06.18-.63,3.29-1.27,6.88s-1.21,6.69-1.28,6.87a5.14,5.14,0,0,1-2.18.71c-1.14.21-3.33.74-4.84,1.18l-2.72.76-5-5.49c-2.76-3-5.07-5.55-5.2-5.57s-9.2,4.78-9.32,5c0,.09,1.14,3.21,2.6,6.95l2.66,6.74-.84.71c-.45.39-2,1.85-3.49,3.25l-2.68,2.54-7.45-2.42-7.45-2.43-2.47,4c-1.39,2.23-2.58,4.23-2.68,4.42s2.46,2.4,5.7,4.9,5.89,4.62,5.94,4.72a27.38,27.38,0,0,1-.8,3.28c-.52,1.73-1.05,3.74-1.24,4.46l-.32,1.34L585.85,290c-3.9.61-7.39,1.19-7.72,1.26s-.61,1.4-.65,5.21c0,2.78.14,5.08.35,5.1s3.71.6,7.78,1.27c6.8,1.1,7.4,1.25,7.61,2,.1.49.61,2.17,1.11,3.83s1,3.28,1.1,3.68c.19.59-.59,1.27-5.85,5.38-5,3.86-6,4.77-5.67,5.12s1.42,2.11,2.68,4.21,2.42,3.81,2.73,3.86,3.63-1,7.48-2.33l7.05-2.38,2.85,2.67c1.58,1.48,3.22,2.92,3.65,3.22.79.51.71.81-2,7.44l-2.76,6.9L610.3,349a31.47,31.47,0,0,0,5,2.39c.17-.08,2.44-2.55,5.11-5.51l4.81-5.37,3.39.85c1.9.47,4.11,1,4.93,1.15l1.44.3,1.32,6.81c.71,3.77,1.38,7,1.51,7.25s7.3.5,10.68.31a49.26,49.26,0,0,0,1.57-7.16c1.19-6.57,1.36-7.18,2.2-7.36,2-.41,5.69-1.33,7.2-1.78l1.62-.46,5.07,5.63,5.07,5.63,2.24-1.23c1.21-.69,3.37-1.83,4.75-2.6l2.51-1.38-2.67-6.77c-1.49-3.73-2.67-6.85-2.6-7s1.07-1,2.29-2.11,2.76-2.47,3.43-3.14l1.2-1.17,7.37,2.42,7.39,2.46,2.68-4.32a27.12,27.12,0,0,0,2.53-4.54c-.07-.15-2.77-2.3-6-4.81L690.48,313l.65-1.87a72.37,72.37,0,0,0,1.89-7c0-.09,14-2.39,15-2.49C708.69,301.57,708.7,291.43,708.14,291.27Zm-29.53,19.35a35.88,35.88,0,0,1-19,18.19,39.77,39.77,0,0,1-29.53,1.36c-19.72-6.42-30.43-26.77-23.73-45.23,4.54-12.5,15.73-21.46,29.75-23.88a48.88,48.88,0,0,1,15.44.37,40.47,40.47,0,0,1,22.1,13.1,44.17,44.17,0,0,1,6.17,10.77A35,35,0,0,1,678.61,310.62Z"/></g></g></svg>