<svg xmlns="http://www.w3.org/2000/svg" viewBox="0 0 1314.71 613"><defs><style>.cls-1,.cls-3{fill:none;stroke:#fff;stroke-miterlimit:10;}.cls-1{stroke-width:16px;}.cls-2{fill:#fff;}.cls-3{stroke-width:40px;}</style></defs><title>product_2</title><g id="Ebene_2" data-name="Ebene 2"><g id="Ebene_1_Kopie" data-name="Ebene 1 Kopie"><rect class="cls-1" x="8" y="8" width="333" height="597" rx="20"/><rect class="cls-1" x="41" y="38" width="267" height="470" rx="20"/><circle class="cls-2" cx="174.5" cy="557" r="10"/><path class="cls-2" d="M174.5,527a30,30,0,1,0,30,30,30,30,0,0,0-30-30Z"/><rect class="cls-1" x="490.85" y="8" width="333" height="597"/><rect class="cls-1" x="518.35" y="37.5" width="278" height="84.33"/><rect class="cls-1" x="518.35" y="152.17" width="278" height="84.33"/><rect class="cls-1" x="518.35" y="266.84" width="278" height="84.33"/><rect class="cls-1" x="518.35" y="381.5" width="278" height="84.33"/><rect class="cls-1" x="518.35" y="496.17" width="278" height="84.33"/><rect class="cls-1" x="973.71" y="34" width="333" height="101.01"/><circle class="cls-3" cx="1028.71" cy="84.96" r="15"/><rect class="cls-1" x="1085.71" y="61.96" width="192" height="16"/><line class="cls-1" x1="1077.71" y1="108.96" x2="1285.71" y2="108.96"/><path class="cls-2" d="M1139.88,262c23.64,0,42.88,20.26,42.88,45.15s-19.24,45.15-42.88,45.15S1097,332.06,1097,307.16,1116.23,262,1139.88,262m0-16c-32.52,0-58.88,27.38-58.88,61.15s26.36,61.15,58.88,61.15,58.88-27.38,58.88-61.15S1172.4,246,1139.88,246Z"/><path class="cls-1" d="M1040.21,487.2c0-58,44.77-105,100-105s100,47,100,105"/><circle class="cls-1" cx="1140.21" cy="384.96" r="166.5"/><line class="cls-1" x1="178.26" y1="293.5" x2="462.26" y2="289.5"/><line class="cls-1" x1="731.26" y1="88.5" x2="949.26" y2="87.5"/><line class="cls-1" x1="1069.26" y1="202.5" x2="1028.26" y2="84.5"/></g></g></svg>