<svg xmlns="http://www.w3.org/2000/svg" viewBox="0 0 400 400"><defs><style>.cls-1{fill:#fab81b;}.cls-2{fill:#fff;}.cls-3,.cls-4{fill:#4990e2;}.cls-4{stroke:#4990e2;stroke-miterlimit:10;stroke-width:12px;}</style></defs><title>smart</title><g id="Layer_2" data-name="Layer 2"><g id="Future"><circle id="Background" class="cls-1" cx="200" cy="200" r="200"/><circle class="cls-2" cx="200" cy="200" r="175"/><path class="cls-3" d="M282.22,187.58h0a1.8,1.8,0,0,0-.06-.22c-3.43-10.14-41.87-8-85.85,4.71-43,12.46-75.36,30.47-73.59,40.75L69.42,217.68,171.91,116l0-.1.11,0,.07-.07,0,.09L319,145.36l-35.81,42.17-.93.18Z"/><path class="cls-3" d="M299.34,224.58a1.87,1.87,0,0,0-.07-.22l.08.21Z"/><path class="cls-3" d="M143.31,279.68l-.08-.21a2,2,0,0,0,.1.21Z"/><path class="cls-3" d="M128.21,240.21c-3.83-10,28-30.47,71.08-45.69s81.13-19.43,85-9.42c0,.08.05.15.07.22h0l14.94,39c-3.83-10-41.87-5.8-85,9.42s-74.91,35.67-71.08,45.69l-14.94-39.05h0Z"/><line class="cls-4" x1="106.84" y1="209.71" x2="106.84" y2="294.92"/><rect class="cls-4" x="101.22" y="278.83" width="10.84" height="32.17" rx="4.96" ry="4.96" transform="translate(213.29 589.83) rotate(180)"/></g></g></svg>